<?xml version="1.0" standalone="no"?><!DOCTYPE svg PUBLIC "-//W3C//DTD SVG 1.1//EN" "http://www.w3.org/Graphics/SVG/1.1/DTD/svg11.dtd">
<svg viewBox="0 0 1024 1024">
	<path d="M800.104185 843.989183 202.033901 843.989183c0 0-155.331741-41.863457-165.530011-212.017788-10.116405-170.236196 152.46546-219.473597 152.46546-219.473597s-4.38282-76.190263 53.688783-119.445416c58.07058-43.339064 135.019113-16.46602 135.019113-16.46602s106.022709-140.336212 272.90553-85.119633c166.963663 55.299467 171.344436 217.997989 171.344436 217.997989s156.765393 28.345582 168.395268 189.652408C1001.955426 760.344135 865.502661 827.52214 865.502661 827.52214S828.142775 848.084455 800.104185 843.989183zM826.867736 788.69074c0 0 104.592127-72.913637 95.66992-196.618053-8.843412-123.623575-152.306848-137.958048-152.306848-137.958048s0-166.632111-131.35363-208.414727c-182.577269-58.164724-238.97372 109.533672-238.97372 109.533672s-69.461001-69.472258-125.778658-19.908422c-62.770626 55.217602-9.479909 125.424594-9.479909 125.424594S91.709213 455.751928 91.709213 615.504352c0 188.096982 182.973288 172.367743 182.973288 172.367743l458.59058 0C754.698043 790.984992 826.867736 788.69074 826.867736 788.69074z" p-id="2706"></path>
</svg>