<?xml version="1.0" encoding="utf-8"?>
<!-- Generator: Adobe Illustrator 21.0.0, SVG Export Plug-In . SVG Version: 6.00 Build 0)  -->
<svg viewBox="0 0 200 200">
<path class="st0" d="M100.1,107.2l26.3-37.4L100.1,107.2l43.1,16.9L100.1,107.2l-0.2,51.2L100.1,107.2l-43.4,16.9L100.1,107.2
	L73.5,69.8L100.1,107.2 M100,0c-5.5,0-10.6,3.3-12.9,8.4L64.7,56.8l-51.5,8c-5.3,0.8-9.7,4.6-11.4,9.8C0,79.7,1.3,85.4,5,89.3
	l37.8,39.3L34,183.1c-0.9,5.5,1.4,11,5.9,14.2c2.5,1.8,5.3,2.7,8.2,2.7c2.4,0,4.8-0.6,6.9-1.8l44.9-24.4l44.9,24.4
	c2.2,1.2,4.5,1.8,6.9,1.8c2.9,0,5.8-0.9,8.2-2.7c4.5-3.2,6.7-8.7,5.9-14.2l-8.8-54.5l38-39.3c3.7-3.9,5-9.6,3.3-14.7
	c-1.7-5.2-6.1-8.9-11.4-9.8l-51.5-8L112.9,8.4C110.6,3.3,105.5,0,100,0L100,0L100,0z"/>
</svg>
