<?xml version="1.0" encoding="utf-8"?>
<!-- Generator: Adobe Illustrator 21.0.0, SVG Export Plug-In . SVG Version: 6.00 Build 0)  -->
<svg viewBox="0 0 200 200">
<path class="st0" d="M165.3,19.8H34.2c-12.1,0-21.9,9.8-21.9,21.8v87.4c0,12.1,9.8,21.8,21.9,21.8h42.9l22.7,27.6l22.6-27.6h43
	c12.1,0,21.9-9.8,21.9-21.8V41.6C187.2,29.6,177.4,19.8,165.3,19.8z M50.2,101.9c-9.2,0-16.7-7.5-16.7-16.7s7.5-16.7,16.7-16.7
	S66.9,76,66.9,85.2S59.4,101.9,50.2,101.9z M99.4,101.9c-9.2,0-16.7-7.5-16.7-16.7s7.5-16.7,16.7-16.7s16.7,7.5,16.7,16.7
	S108.7,101.9,99.4,101.9z M148.7,101.9c-9.2,0-16.7-7.5-16.7-16.7s7.5-16.7,16.7-16.7c9.2,0,16.7,7.5,16.7,16.7
	S158,101.9,148.7,101.9z"/>
</svg>
