<?xml version="1.0" encoding="utf-8"?>
<!-- Generator: Adobe Illustrator 21.0.0, SVG Export Plug-In . SVG Version: 6.00 Build 0)  -->
<svg version="1.1" id="图层_1" xmlns="http://www.w3.org/2000/svg" xmlns:xlink="http://www.w3.org/1999/xlink" x="0px" y="0px"
	 viewBox="0 0 174.9 158.7" style="enable-background:new 0 0 174.9 158.7;" xml:space="preserve">
<style type="text/css">
	.st0{fill:#FFFFFF;}
</style>
<path class="st0" d="M153,0H21.9C9.8,0,0,9.8,0,21.8v87.4c0,12.1,9.8,21.8,21.9,21.8h42.9l22.7,27.6l22.6-27.6h43
	c12.1,0,21.9-9.8,21.9-21.8l0-87.4C174.9,9.8,165.1,0,153,0z M37.9,82.2c-9.2,0-16.7-7.5-16.7-16.7s7.5-16.7,16.7-16.7
	s16.7,7.5,16.7,16.7S47.1,82.2,37.9,82.2z M87.1,82.2c-9.2,0-16.7-7.5-16.7-16.7s7.5-16.7,16.7-16.7s16.7,7.5,16.7,16.7
	S96.4,82.2,87.1,82.2z M136.4,82.2c-9.2,0-16.7-7.5-16.7-16.7s7.5-16.7,16.7-16.7c9.2,0,16.7,7.5,16.7,16.7S145.7,82.2,136.4,82.2z"
	/>
</svg>
