<?xml version="1.0" encoding="utf-8"?>
<!-- Generator: Adobe Illustrator 21.0.0, SVG Export Plug-In . SVG Version: 6.00 Build 0)  -->
<svg viewBox="0 0 174.9 164">
<g>
	<path class="st0" d="M45,163.9L45,163.9L45,163.9C45.1,163.9,45.1,163.9,45,163.9C45.1,163.9,45.1,163.9,45,163.9L45,163.9
		L45,163.9L45,163.9z"/>
	<path class="st0" d="M28.9,64.2H7.7c-4.2,0-7.7,3.5-7.7,7.9V156c0,4.4,3.4,7.9,7.7,7.9h21.2c4.2,0,7.7-3.5,7.7-7.9V72.1
		C36.6,67.7,33.1,64.2,28.9,64.2z"/>
	<path class="st0" d="M171.8,67.1c-3.7-6.2-9.1-8.7-15.6-9c-0.3-0.1-39.3-0.2-39.3-0.2c2.6-7.7,3.3-16.9,3.3-25.5
		c0-5.6-0.6-11.1-1.7-16.3h-0.1C116.4,6.9,108.5,0,99.1,0c-11,0-18.3,9.5-18.3,21c0,0.6-0.1,1.3,0,1.9c-0.6,21.4-17.5,38.6-37.6,41
		L43,164h2c0,0,0,0,0.1,0s0.1,0,0.1,0h97.3h0.1c3.7,0,5.7-1,9.1-3.2c3.2-2.1,5.6-5,7.2-8.3c0.4-0.7,15.5-68.6,15.9-72.6
		C175.1,75.5,174.2,71,171.8,67.1z"/>
</g>
</svg>
