<?xml version="1.0" encoding="utf-8"?>
<!-- Generator: Adobe Illustrator 21.0.0, SVG Export Plug-In . SVG Version: 6.00 Build 0)  -->
<svg viewBox="0 0 150 150">
<path class="st0" d="M75,0C33.6,0,0,33.6,0,75s33.6,75,75,75s75-33.6,75-75S116.4,0,75,0z M75,142.5c-37.2,0-67.5-30.3-67.5-67.5
	S37.8,7.5,75,7.5s67.5,30.2,67.5,67.5S112.2,142.5,75,142.5z"/>
<path class="st0" d="M102.9,70.6L63.8,48.1c-0.8-0.5-1.6-0.6-2.5-0.6c-2.6,0-5,2.1-5,5v45.1c0,2.9,2.4,5,5,5c0.9,0,1.6-0.2,2.5-0.6
	l39.1-22.6C106.2,77.4,106.2,72.6,102.9,70.6z M63.8,93.2V56.8L95.4,75L63.8,93.2z"/>
</svg>
