<?xml version="1.0" encoding="utf-8"?>
<!-- Generator: Adobe Illustrator 21.0.0, SVG Export Plug-In . SVG Version: 6.00 Build 0)  -->
<svg viewBox="0 0 138.7 138.7" style="enable-background:new 0 0 138.7 138.7;" xml:space="preserve">
<path class="st0" d="M138.2,136.4l-1.8,1.8c-1,1-3.3,0.3-5.1-1.6l-35.9-35.9l0,0L90,95.3c0-0.1,0-0.2,0.1-0.3l1-0.5
	c10.1-9.1,16.5-22.3,16.5-37c0-27.6-22.4-50-50-50s-50,22.4-50,50s22.4,50,50,50c5.6,0,11-1,16-2.7l3,6.9c-6,2.1-12.4,3.3-19.1,3.3
	C25.8,115,0,89.3,0,57.5C0,25.8,25.7,0,57.5,0C89.2,0,115,25.7,115,57.5c0,14.5-5.4,27.7-14.3,37.9l35.9,35.9
	C138.5,133.1,139.2,135.4,138.2,136.4z"/>
</svg>
