<?xml version="1.0" encoding="utf-8"?>
<!-- Generator: Adobe Illustrator 21.0.0, SVG Export Plug-In . SVG Version: 6.00 Build 0)  -->
<svg version="1.1" id="图层_1" xmlns="http://www.w3.org/2000/svg" xmlns:xlink="http://www.w3.org/1999/xlink" x="0px" y="0px"
	 viewBox="0 0 200 200" style="enable-background:new 0 0 200 200;" xml:space="preserve">
<style type="text/css">
	.st0{fill:#FAA61A;}
</style>
<path class="st0" d="M198,104.6c2.7-2.5,2.7-6.7,0-9.2l-15.6-14c-1.8-1.6-2.5-4.2-1.7-6.5l6.5-19.9c1.1-3.5-1-7.2-4.6-8l-20.5-4.3
	c-2.4-0.5-4.3-2.4-4.8-4.8L153,17.5c-0.8-3.6-4.5-5.7-8-4.6l-19.9,6.5c-2.3,0.8-4.9,0.1-6.5-1.7L104.6,2c-2.5-2.7-6.7-2.7-9.2,0
	l-14,15.6c-1.6,1.8-4.2,2.5-6.5,1.7L55,12.9c-3.5-1.1-7.2,1-8,4.6L42.7,38c-0.5,2.4-2.4,4.3-4.8,4.8L17.5,47c-3.6,0.8-5.7,4.5-4.6,8
	l6.5,19.9c0.8,2.3,0.1,4.9-1.7,6.5L2,95.4c-2.7,2.5-2.7,6.7,0,9.2l15.6,14c1.8,1.6,2.5,4.2,1.7,6.5L12.9,145c-1.1,3.5,1,7.2,4.6,8
	l20.5,4.3c2.4,0.5,4.3,2.4,4.8,4.8l4.3,20.5c0.8,3.6,4.5,5.7,8,4.6l19.9-6.5c2.3-0.8,4.9-0.1,6.5,1.7l14,15.6c2.5,2.7,6.7,2.7,9.2,0
	l14-15.6c1.6-1.8,4.2-2.5,6.5-1.7l19.9,6.5c3.5,1.1,7.2-1,8-4.6l4.3-20.5c0.5-2.4,2.4-4.3,4.8-4.8l20.5-4.3c3.6-0.8,5.7-4.5,4.6-8
	l-6.5-19.9c-0.8-2.3-0.1-4.9,1.7-6.5L198,104.6z M156.1,77.5l-66.8,66.8c-1.8,1.8-4.2,2.7-6.6,2.7c-2.4,0-4.8-0.9-6.6-2.7
	l-38.2-38.2c-3.6-3.6-3.6-9.6,0-13.2s9.6-3.6,13.2,0l31.6,31.6l60.2-60.2c3.6-3.6,9.6-3.6,13.2,0C159.8,67.9,159.8,73.8,156.1,77.5z
	"/>
</svg>
