
<svg viewBox="0 0 329.2 329.2">
<g>
	<path class="st0" d="M212.3,224L212.3,224c-6.5,0-11.9-5.3-11.9-11.9v-94.9c0-6.5,5.3-11.9,11.9-11.9l0,0c6.5,0,11.9,5.3,11.9,11.9
		v94.9C224.1,218.6,218.8,224,212.3,224L212.3,224z"/>
	<path class="st0" d="M116.5,224L116.5,224c-6.5,0-11.9-5.3-11.9-11.9v-94.9c0-6.5,5.3-11.9,11.9-11.9l0,0c6.5,0,11.9,5.3,11.9,11.9
		v94.9C128.4,218.6,123,224,116.5,224L116.5,224z"/>
	<path class="st0" d="M164.6,0C73.7,0,0,73.7,0,164.6s73.7,164.6,164.6,164.6c90.9,0,164.6-73.7,164.6-164.6S255.5,0,164.6,0
		L164.6,0z M164.6,311.9c-81.3,0-147.2-65.9-147.2-147.2S83.3,17.4,164.6,17.4c81.3,0,147.2,65.9,147.2,147.2
		S245.9,311.9,164.6,311.9L164.6,311.9z"/>
</g>
</svg>
