<?xml version="1.0" encoding="utf-8"?>
<!-- Generator: Adobe Illustrator 21.0.0, SVG Export Plug-In . SVG Version: 6.00 Build 0)  -->
<svg viewBox="0 0 131.6 149.8" style="enable-background:new 0 0 131.6 149.8;" xml:space="preserve">
<path class="st0" d="M112.3,99.6c-1.4-1.4-3.7-1.4-5.2,0c-1.4,1.4-1.4,3.7,0,5.2c11.1,11.1,17.1,25.7,17.1,41.4c0,2,1.6,3.7,3.7,3.7
	s3.7-1.6,3.7-3.7C131.6,128.6,124.8,112.1,112.3,99.6z M65.8,0C41.6,0,21.9,19.7,21.9,43.9c0,17.3,10,32.2,24.5,39.4
	C36.3,86.4,27,91.9,19.3,99.6C6.8,112.1,0,128.6,0,146.2c0,2,1.6,3.7,3.7,3.7s3.7-1.6,3.7-3.7c0-15.6,6.1-30.3,17.1-41.4
	c10.7-10.7,24.7-16.7,39.7-17.1c0.5,0,1.1,0,1.6,0c24.2,0,43.9-19.7,43.9-43.9C109.7,19.7,90,0,65.8,0z M66.4,80.4
	c-0.2,0-0.4,0-0.6,0c-0.5,0-1.1,0-1.6,0c-19.4-0.8-34.9-16.9-34.9-36.5c0-20.2,16.4-36.6,36.6-36.6c20.2,0,36.6,16.4,36.6,36.6
	C102.4,63.8,86.3,80.1,66.4,80.4z"/>
</svg>
