<?xml version="1.0" encoding="utf-8"?>
<!-- Generator: Adobe Illustrator 21.0.0, SVG Export Plug-In . SVG Version: 6.00 Build 0)  -->
<svg version="1.1" id="图层_1" xmlns="http://www.w3.org/2000/svg" xmlns:xlink="http://www.w3.org/1999/xlink" x="0px" y="0px"
	 viewBox="0 0 176.2 105.6" style="enable-background:new 0 0 176.2 105.6;" xml:space="preserve">
<path class="st0" d="M88.1,96.8c32.3,0,76.2-33,79.2-42.1c-1.2-10-42.5-45.9-79.2-45.9C53.1,8.8,8.8,37.5,8.8,55
	C9.7,63.5,52.2,96.8,88.1,96.8 M88.1,105.6C51.3,105.6,0,71,0,55C0,29.5,51.6,0,88.1,0c39.9,0,88.1,38.7,88.1,55
	C176.1,68.5,123.4,105.6,88.1,105.6L88.1,105.6L88.1,105.6L88.1,105.6z"/>
<path class="st0" d="M88.1,74.8c12.1,0,22-9.9,22-22s-9.9-22-22-22s-22,9.9-22,22C66,64.9,75.9,74.8,88.1,74.8 M88.1,83.6
	c-17,0-30.8-13.8-30.8-30.8S71.1,22,88.1,22s30.8,13.8,30.8,30.8C118.9,69.8,105.1,83.6,88.1,83.6L88.1,83.6L88.1,83.6L88.1,83.6z"
	/>
</svg>
