<?xml version="1.0" encoding="utf-8"?>
<!-- Generator: Adobe Illustrator 21.0.0, SVG Export Plug-In . SVG Version: 6.00 Build 0)  -->
<svg version="1.1" id="图层_1" xmlns="http://www.w3.org/2000/svg" xmlns:xlink="http://www.w3.org/1999/xlink" x="0px" y="0px"
	 viewBox="0 0 200 200" style="enable-background:new 0 0 200 200;" xml:space="preserve">
<style type="text/css">
	.st0{fill:#FAA61A;}
</style>
<g>
	<path class="st0" d="M80.3,118.7c-3.5-1.5-8,0-10.2,3.4c-2.2,3.4-1.2,7.4,2.3,9c3.5,1.6,8.2,0.1,10.4-3.4
		C85,124.2,83.9,120.2,80.3,118.7z"/>
	<path class="st0" d="M89,115.1c-1.3-0.5-3,0.1-3.8,1.4c-0.8,1.3-0.3,2.8,1,3.4c1.4,0.6,3.1-0.1,3.9-1.4
		C90.8,117.1,90.3,115.6,89,115.1z"/>
	<path class="st0" d="M83.5,91.7c-22.7,2.2-39.8,16.1-38.4,30.9c1.5,14.8,21,25,43.7,22.8c22.7-2.2,39.8-16.1,38.4-30.9
		C125.7,99.6,106.2,89.4,83.5,91.7z M103.4,126.6c-4.6,10.4-17.9,16-29.2,12.3c-10.9-3.5-15.5-14.2-10.7-23.9
		c4.7-9.5,16.9-14.8,27.6-12C102.2,105.9,107.9,116.4,103.4,126.6z"/>
	<path class="st0" d="M100,0C44.8,0,0,44.8,0,100c0,55.2,44.8,100,100,100c55.2,0,100-44.8,100-100C200,44.8,155.2,0,100,0z
		 M89,155.3c-28.4,0-57.4-13.7-57.4-36.3c0-11.8,7.5-25.4,20.4-38.3c17.2-17.2,37.3-25,44.9-17.5c3.3,3.3,3.7,9.1,1.5,15.9
		c-1.1,3.5,3.3,1.5,3.3,1.5c13.9-5.8,26.1-6.2,30.5,0.2c2.4,3.4,2.1,8.1,0,13.6c-1,2.5,0.3,2.9,2.2,3.5c7.8,2.4,16.6,8.3,16.6,18.6
		C150.9,133.7,126.2,155.3,89,155.3z M140.4,83.6c0.9-2.8,0.3-6-1.8-8.4c-2.1-2.4-5.3-3.3-8.2-2.6v0c-2.4,0.5-4.8-1-5.4-3.4
		c-0.5-2.4,1-4.8,3.5-5.3c6-1.3,12.4,0.6,16.8,5.4c4.4,4.8,5.6,11.4,3.7,17.2c-0.8,2.4-3.3,3.7-5.7,2.9
		C140.9,88.5,139.6,85.9,140.4,83.6L140.4,83.6L140.4,83.6z M166.7,92C166.6,92,166.6,92,166.7,92c-0.9,2.8-3.9,4.3-6.6,3.4
		c-2.8-0.9-4.3-3.8-3.4-6.6v0c2.7-8.4,1-18.1-5.4-25.1c-6.4-7.1-15.8-9.8-24.5-7.9c-2.8,0.6-5.6-1.2-6.2-4c-0.6-2.8,1.2-5.6,4-6.2h0
		c12.2-2.6,25.5,1.2,34.5,11.1C168.1,66.6,170.5,80.2,166.7,92z"/>
</g>
</svg>
