<?xml version="1.0" encoding="utf-8"?>
<!-- Generator: Adobe Illustrator 21.0.0, SVG Export Plug-In . SVG Version: 6.00 Build 0)  -->
<svg version="1.1" id="图层_1" xmlns="http://www.w3.org/2000/svg" xmlns:xlink="http://www.w3.org/1999/xlink" x="0px" y="0px"
	 viewBox="0 0 130.5 174" style="enable-background:new 0 0 130.5 174;" xml:space="preserve">
<style type="text/css">
	.st0{fill:#FAA61A;}
</style>
<path class="st0" d="M130.3,34.5C130.3,34.4,130.3,34.4,130.3,34.5v-0.4c-0.1-0.5-0.2-1-0.4-1.5c-0.1-0.2-0.2-0.5-0.4-0.7v-0.1
	c-0.1-0.1-0.1-0.2-0.2-0.3c0,0,0-0.1-0.1-0.1c0-0.1-0.1-0.1-0.1-0.2l-0.1-0.1l-0.1-0.1l-0.1-0.1L99,1.6c-0.8-0.9-2-1.4-3.2-1.6h-2.2
	h1.7H9.1C3.5-0.1-0.3,3.1,0,9.1v155.8c0,6.6,3.1,9.1,9.1,9.1h112.3c6.7,0,9.1-3.1,9.1-9.1V34.8C130.3,34.7,130.3,34.5,130.3,34.5z
	 M102.8,125.7H27.5c-3,0-5.4-2.4-5.4-5.4c0-3,2.4-5.4,5.4-5.4h75.3c3,0,5.4,2.4,5.4,5.4C108.2,123.3,105.7,125.7,102.8,125.7z
	 M102.8,97.4H27.5c-3,0-5.4-2.4-5.4-5.4c0-3,2.4-5.4,5.4-5.4h75.3c3,0,5.4,2.4,5.4,5.4C108.2,95,105.7,97.4,102.8,97.4z M102.8,68.1
	H27.5c-3,0-5.4-2.4-5.4-5.4s2.4-5.4,5.4-5.4h75.3c3,0,5.4,2.4,5.4,5.4C108.2,65.6,105.7,68.1,102.8,68.1z M100.4,29.3v-11l11.2,11
	H100.4z"/>
</svg>
