<?xml version="1.0" encoding="utf-8"?>
<!-- Generator: Adobe Illustrator 21.0.0, SVG Export Plug-In . SVG Version: 6.00 Build 0)  -->
<svg version="1.1" xmlns="http://www.w3.org/2000/svg" xmlns:xlink="http://www.w3.org/1999/xlink" x="0px" y="0px"
	 viewBox="0 0 424 398.2" style="enable-background:new 0 0 424 398.2;" xml:space="preserve">
<style type="text/css">
	.st0{fill:#D0E9E7;}
	.st1{fill:#FFF67F;stroke:#000000;stroke-width:3;stroke-linecap:round;stroke-miterlimit:10;}
	.st2{fill:none;stroke:#000000;stroke-width:5;stroke-linecap:round;stroke-miterlimit:10;}
	.st3{fill:#E4DC63;}
	.st4{fill:#FFF67F;}
	.st5{fill:#57473B;}
	.st6{fill:#997D6F;}
	.st7{fill:#C6B299;}
	.st8{fill:#FFFFFF;}
	.st9{fill:#666666;}
</style>
<g id="图层_1">
</g>
<g id="图层_2">
	<g>
		<circle class="st0" cx="216.5" cy="198.7" r="198.7"/>
		<g>
			<path class="st1" d="M194.8,250.5c7.4-3.4,14.9-2.1,17.4,1.7c3.3,5-1.8,14.3-8.7,17.4c-7.6,3.4-16.6-1.2-20.9-7
				c-6.4-8.7-3.1-21.4,3.5-28.7c7.4-8.1,18.8-9.2,27-7c11.9,3.3,20.7,14.8,21.7,28.7c4.6-0.1,15.7,3.2,25.2,10.8
				c7,5.6,9.9,12.4,13,20c4.1,9.8,5.7,16.2,6.1,24c4.2,0.5,9.8,2.3,16.5,3.6c12.9,2.5,19.4,3.8,20.7,7c2.3,5.7-6.4,15.6-15.4,20
				c-9.6,4.6-19.1,1.7-22.6,0.7c0.1,3.1-7.6,22.7-20.2,34.5c-12.6,11.8-30.2,15.9-36.4,16.7c-6.3,0.9-23,3.9-41.2-9.6
				c-21.1-15.5-26.5-33.8-26.6-37.3c-2.3,1.1-9.9,5.1-19.1,2.7c-9-2.3-19.2-9.2-18.5-14.8c0.5-3.6,5.5-6.5,13.4-8.6
				c5.4-1.4,12.2-3.3,19.8-3.7c-0.5-6.3-0.6-18.5,5.2-32.2c2-4.8,6.6-14,15.7-22.6c3.6-3.4,6.9-5.9,9.6-7.6"/>
			<path class="st2" d="M173.5,314.6l23.5,8.5c1.4,0.5,1.5,2.5,0.2,3.2l-23.7,12.4"/>
			<path class="st2" d="M251.2,308L228.1,320c-1.2,0.6-1.1,2.4,0.2,2.9l25.2,9.9"/>
			<path class="st3" d="M233.3,257.3c0,0,11.3,4.5,21.6,18c9.5,12.5,11.5,25.9,14,42.7c2.4,15.8,1.2,28-4.3,37.2
				c-11.1,18.7-40.9,36.1-40.9,36.1s6.6-0.9,17.5-5.6c7.1-3.1,13.7-6.8,21-15.9c7.5-9.4,15.6-24.8,14.4-29.9
				c2.4,0.4,13.4,5.8,25.6-1.2c7.9-4.5,12.1-11.5,12.7-15.4c-2.9,2.1-14,5.4-23,6c-5.2,0.4-9.4-0.5-12.3-1.3
				c-0.2-4.4-1.5-9.1-2-16.1c-0.4-5.2-0.8-11-3.9-19c-2.8-7.3-5.5-16.4-12.8-23.4C249.5,258.5,233.3,257.3,233.3,257.3z"/>
			<path class="st3" d="M117.8,334c0,0-0.3,2.5,2.5,5.3c2.5,2.5,6.1,4.7,10,6.5c10.5,4.7,20,0.8,25-1.9c0.8-1.5,0.4-0.5,1.2-2.1
				c-10.2,0.1-16,0.6-21.4-0.7C122.1,338,117.8,334,117.8,334z"/>
			<g>
				<path class="st4" d="M173.5,392.4c1-3,6.4-15,8.2-17.6c1.8-2.6,4.5-4.9,7.6-5.4c1.8-0.3,3.8,0,4.9,1.4c0.6,0.8,0.9,1.8,1.1,2.9
					c1.4,6.9,2.4,15.9,2.9,22.9"/>
				<g>
					<path d="M175.1,392.9c2-5.7,4.5-12,7.8-17c1.2-1.9,5-5.9,7.7-4.9c3.3,1.1,3.6,5.9,4,8.7c0.9,5.6,1.4,11.3,1.9,17
						c0.2,2.1,3.5,2.1,3.3,0c-0.6-7.6-1-16-3-23.3c-1.4-5.1-5.6-6.8-10.6-4.6c-4.2,1.9-6.4,5.8-8.4,9.7c-2.2,4.4-4.3,9-6,13.6
						C171.2,394,174.4,394.8,175.1,392.9L175.1,392.9z"/>
				</g>
			</g>
			<g>
				<path class="st4" d="M249.1,395c-5.9-9.3-10.5-14.3-13.6-25.1c-0.3-1.1-0.6-2.2-0.1-3.2c0.7-1.4,2.4-1.7,3.9-1.6
					c12.1,0.2,29.3,13.2,37.2,22.9"/>
				<g>
					<path d="M250.5,394.2c-3.2-5-6.8-9.8-9.6-15c-1.1-2.2-4.3-7.2-3.8-9.7c0.8-4.6,6.7-2.3,9.4-1.4c11.1,3.7,21.4,12.1,28.8,21
						c1.4,1.6,3.7-0.7,2.3-2.3c-8.6-10.4-22.7-22-36.7-23.3c-17.9-1.6,3.3,27,6.7,32.3C248.8,397.6,251.7,396,250.5,394.2
						L250.5,394.2z"/>
				</g>
			</g>
			<g>
				<g>
					<path d="M192.1,300.4c-2.1,2.3-4.8,3.5-7.9,3.4c-1.9-0.1-1.9,2.9,0,3c3.8,0.1,7.5-1.4,10-4.3
						C195.4,301.1,193.3,298.9,192.1,300.4L192.1,300.4z"/>
				</g>
			</g>
			<g>
				<g>
					<path d="M228.3,299.1c3.6,1.4,7.4,1.6,11.2,0.7c1.9-0.5,1.1-3.4-0.8-2.9c-3.3,0.9-6.4,0.6-9.6-0.7
						C227.3,295.5,226.5,298.4,228.3,299.1L228.3,299.1z"/>
				</g>
			</g>
			<g>
				<g>
					<path d="M208,366.1c0.9-1.4,1.8-2.8,2.7-4.2c0.7-1.1,1.6-3.4,2.7-4.2c2.8-2,7.3,3.4,9.4,5.1c1.5,1.2,3.6-0.9,2.1-2.1
						c-2.5-2.1-7.5-8-11.2-7c-1.6,0.4-2.4,1.7-3.2,3c-1.7,2.6-3.3,5.2-5,7.8C204.4,366.3,207,367.8,208,366.1L208,366.1z"/>
				</g>
			</g>
		</g>
		<g>
			<polygon class="st5" points="8.3,123.1 0,130.7 9.8,129.4 			"/>
			<polygon class="st5" points="3.5,135.8 10.4,130 12.1,133.7 			"/>
			<path class="st6" d="M62.1,129.5c-6.2-3.9-5.8-12.7-5.8-13.5c0.4-6.9,5.1-11.4,8-14.1c8.7-8.2,19.6-9.3,24.1-9.5
				c0,4.8-0.3,11.4-1.8,19.3c-1.7,9.3-3.4,11.7-4.3,12.7C78,129.7,68.6,133.6,62.1,129.5z"/>
			<path class="st7" d="M17,99.2c7.9-7.6,17.7-8.2,22.4-8.5c16.9-1.1,29.9,7.9,34.6,11.1c9.5,6.6,9.5,10.3,20.3,17.7
				c8.2,5.7,15.9,8.8,21.1,10.6c-2,4.5-5.8,11.5-12.7,18.1c-17.2,16.6-38.9,16.5-41.8,16.4c-5.6-0.1-25-1.4-39.3-16.6
				c-3.1-3.3-16.7-17.8-12.9-34.4C10.5,105.7,15.6,100.6,17,99.2z"/>
			<path class="st6" d="M55,124.3c2.6,6.8,11.3,8.3,12,8.4c6.9,1,12.2-2.7,15.4-4.9c9.8-6.8,13.1-17.3,14.2-21.7
				c-4.7-1-11.3-2-19.3-2.2c-9.5-0.2-12.1,1-13.3,1.6C58,108.8,52.2,117.2,55,124.3z"/>
			
				<ellipse transform="matrix(0.8245 -0.5658 0.5658 0.8245 -66.9189 32.4693)" class="st8" cx="18.9" cy="124.1" rx="5.3" ry="5.3"/>
			
				<ellipse transform="matrix(0.8245 -0.5658 0.5658 0.8245 -67.4829 31.4203)" class="st5" cx="16.9" cy="124.5" rx="2.7" ry="2.7"/>
		</g>
		<circle class="st9" cx="229.1" cy="134.8" r="4.8"/>
		<circle class="st9" cx="267.1" cy="134.8" r="4.8"/>
		<circle class="st9" cx="305.1" cy="134.8" r="4.8"/>
		<circle class="st9" cx="343.1" cy="134.8" r="4.8"/>
		<circle class="st9" cx="381.1" cy="134.8" r="4.8"/>
		<circle class="st9" cx="419.1" cy="134.8" r="4.8"/>
	</g>
</g>
</svg>
