<svg viewBox="0 0 149.9 149.9">
<g>
	<path class="st0" d="M75,116.5C52,116.5,33.4,97.9,33.4,75S52,33.4,75,33.4S116.5,52,116.5,75S97.9,116.5,75,116.5z M75,40.4
		c-19.1,0-34.6,15.5-34.6,34.6s15.5,34.6,34.6,34.6S109.6,94,109.6,75S94,40.4,75,40.4z"/>
	<path class="st0" d="M37.2,40.7c-0.9,0-1.8-0.3-2.5-1L22,26.9c-1.4-1.4-1.4-3.6,0-4.9c1.4-1.4,3.6-1.4,4.9,0l12.8,12.8
		c1.4,1.4,1.4,3.6,0,4.9C39,40.4,38.1,40.7,37.2,40.7z"/>
	<path class="st0" d="M125.5,129c-0.9,0-1.8-0.3-2.5-1l-12.8-12.8c-1.4-1.4-1.4-3.6,0-4.9c1.4-1.4,3.6-1.4,4.9,0L128,123
		c1.4,1.4,1.4,3.6,0,4.9C127.3,128.7,126.4,129,125.5,129z"/>
	<path class="st0" d="M112.7,40.7c-0.9,0-1.8-0.3-2.5-1c-1.4-1.4-1.4-3.6,0-4.9L123,22c1.4-1.4,3.6-1.4,4.9,0s1.4,3.6,0,4.9
		l-12.8,12.8C114.5,40.4,113.6,40.7,112.7,40.7z"/>
	<path class="st0" d="M24.4,129c-0.9,0-1.8-0.3-2.5-1c-1.4-1.4-1.4-3.6,0-4.9l12.8-12.8c1.4-1.4,3.6-1.4,4.9,0
		c1.4,1.4,1.4,3.6,0,4.9L26.9,128C26.2,128.7,25.3,129,24.4,129z"/>
	<path class="st0" d="M21.6,78.5H3.5C1.6,78.5,0,76.9,0,75c0-1.9,1.6-3.5,3.5-3.5h18.1c1.9,0,3.5,1.6,3.5,3.5
		C25.1,76.9,23.6,78.5,21.6,78.5z"/>
	<path class="st0" d="M146.4,78.5h-18.1c-1.9,0-3.5-1.6-3.5-3.5c0-1.9,1.6-3.5,3.5-3.5h18.1c1.9,0,3.5,1.6,3.5,3.5
		C149.9,76.9,148.4,78.5,146.4,78.5z"/>
	<path class="st0" d="M75,25.1c-1.9,0-3.5-1.6-3.5-3.5V3.5C71.5,1.6,73,0,75,0s3.5,1.6,3.5,3.5v18.1C78.5,23.6,76.9,25.1,75,25.1z"
		/>
	<path class="st0" d="M75,149.9c-1.9,0-3.5-1.6-3.5-3.5v-18.1c0-1.9,1.6-3.5,3.5-3.5s3.5,1.6,3.5,3.5v18.1
		C78.5,148.4,76.9,149.9,75,149.9z"/>
</g>
</svg>
