<?xml version="1.0" encoding="utf-8"?>
<!-- Generator: Adobe Illustrator 21.0.0, SVG Export Plug-In . SVG Version: 6.00 Build 0)  -->
<svg version="1.1" id="图层_1" xmlns="http://www.w3.org/2000/svg" xmlns:xlink="http://www.w3.org/1999/xlink" x="0px" y="0px"
	 viewBox="0 0 163.7 133.2" style="enable-background:new 0 0 163.7 133.2;" xml:space="preserve">
<style type="text/css">
	.st0{fill:#FFFFFF;}
</style>
<path class="st0" d="M136.2,38.5c-4,0-7.2,3.2-7.2,7.2s3.2,7.2,7.2,7.2s7.2-3.2,7.2-7.2C143.4,41.7,140.1,38.5,136.2,38.5z
	 M69.2,33.1C45.9,33.1,27,52,27,75.2s18.9,42.1,42.2,42.1s42.2-18.9,42.2-42.1S92.5,33.1,69.2,33.1z M69.2,107.7
	c-18,0-32.6-14.6-32.6-32.5s14.6-32.5,32.6-32.5s32.6,14.6,32.6,32.5S87.2,107.7,69.2,107.7z M141.4,16H95.5c-2-9.1-10.2-16-19.9-16
	H40.2c-9.8,0-18,6.9-19.9,16.1C8.9,17.1,0,26.7,0,38.3v72.6c0,12.3,10,22.3,22.3,22.3h119.1c12.3,0,22.3-10,22.3-22.3V38.3
	C163.7,26,153.7,16,141.4,16z M40.4,10.2h35.4c4.4,0,8.2,2.6,9.9,6.4H30.6C32.3,12.9,36,10.2,40.4,10.2z M154.3,111.5
	c0,7-5.7,12.7-12.7,12.7H22.5c-7,0-12.7-5.7-12.7-12.7V38.9c0-7,5.7-12.7,12.7-12.7h119.1c7,0,12.7,5.7,12.7,12.7V111.5z"/>
</svg>
